<svg width="118" height="94" viewBox="0 0 118 94" fill="none" xmlns="http://www.w3.org/2000/svg">
<g clip-path="url(#clip0_1_22)">
<path d="M51.8202 58.3685C54.3821 58.3417 56.8781 57.5501 58.991 56.0943C60.6524 55.0073 62.2413 53.8201 63.8665 52.6694C63.9922 52.5863 64.1359 52.5347 64.2856 52.5188C64.4352 52.503 64.5865 52.5235 64.7266 52.5784C64.5705 52.8952 64.3742 53.1902 64.1427 53.4563C60.6841 56.5355 56.8588 58.8551 52.1145 59.3009C51.6098 59.3907 51.1581 59.6704 50.8515 60.0832C49.5522 61.8707 48.33 63.7218 47.0262 65.623L46.2747 65.241L49.9868 59.7602C45.2652 60.0832 40.9329 59.219 37.2208 56.0807C36.2792 56.9903 35.3466 57.809 34.4684 58.6914C32.1436 60.9851 29.5749 63.0152 26.8087 64.7452C22.4764 67.5106 17.9132 69.4527 12.7751 69.9803C10.0589 70.2577 7.34276 70.1486 4.92536 68.8705C3.65526 68.2109 2.56312 67.2519 1.74241 66.0756C0.921704 64.8993 0.396857 63.5408 0.212785 62.1163C-0.380621 58.2784 0.305339 54.3511 2.16391 50.9456C4.22595 46.8716 7.22403 43.3496 10.91 40.671C12.9548 39.2417 15.1988 38.1243 17.5692 37.3552C22.7345 35.6087 28.0989 38.6788 28.4022 44.4688C28.6105 48.3849 27.1754 51.7188 24.9708 54.657C23.5498 56.4726 21.7413 57.9445 19.6788 58.9643C17.3183 60.1311 14.7592 60.8379 12.1368 61.0474C11.7688 61.0451 11.402 61.007 11.0413 60.9337L11.0141 60.4789C11.7611 60.347 12.5126 60.2378 13.2776 60.0832C16.2202 59.4646 18.9635 58.5595 21.5031 56.722C23.0918 55.5813 24.4362 54.1315 25.4565 52.4586C26.4768 50.7858 27.1522 48.9241 27.4425 46.984C28.28 42.0309 25.8626 37.1824 19.2261 38.042C16.7936 38.3903 14.4717 39.2892 12.4356 40.671C9.53866 42.5211 7.04409 44.9408 5.10191 47.7845C2.42195 51.7552 0.470822 56.0579 0.905411 61.1475C1.31736 65.996 5.43238 69.2116 10.0816 69.3026C13.8723 69.3549 17.622 68.5104 21.0278 66.8374C23.3592 65.7276 25.7766 64.6588 27.8454 63.1487C30.4258 61.2657 32.6893 58.9461 35.0886 56.8175C35.5413 56.399 36.0437 55.9942 36.338 55.7441C35.3104 53.4472 34.1696 51.3504 33.4453 49.1172C32.8775 47.4306 32.6348 45.6508 32.73 43.873C33.0152 39.966 34.1107 36.2818 36.5734 33.0935C38.1895 31.0012 40.0411 29.2456 42.5037 28.2814C44.9664 27.3171 47.5785 27.3717 49.7243 28.8908C51.6712 30.2949 53.1335 32.2745 53.9072 34.5535C54.0158 34.8628 54.1471 35.1675 54.3599 35.7088C54.9303 35.0947 55.383 34.6172 55.8221 34.135C58.6379 31.0604 61.431 27.9675 64.2694 24.9156C66.4333 22.5914 68.5248 20.1717 70.8788 18.0522C73.8666 15.3596 77.0807 12.9172 80.2179 10.3928C81.0129 9.76889 81.8444 9.19326 82.7078 8.66903C83.026 8.55679 83.3621 8.50437 83.6992 8.51439C83.6856 8.82784 83.615 9.13615 83.4909 9.42405C82.3863 11.0281 81.2606 12.6155 80.1138 14.1861C78.5656 16.3102 76.9449 18.3933 75.4375 20.5538C74.0794 22.4868 72.7575 24.4699 71.4628 26.4666C68.9367 30.3417 66.4258 34.2275 63.9299 38.1239C62.5718 40.2252 61.2137 42.3084 59.9235 44.4506C58.5292 46.7884 57.2571 49.1945 55.8945 51.5505C54.5681 53.7701 53.2327 55.976 51.8202 58.3685ZM37.1981 54.7298C38.3072 53.6382 39.4616 52.5739 40.5119 51.455C41.6436 50.2679 42.7165 49.0171 43.8211 47.8164C45.1792 46.32 46.5644 44.8418 47.8954 43.3317C49.3576 41.6989 50.7473 39.9978 52.2548 38.4105C53.2236 37.3871 53.6537 36.25 53.0833 34.981C52.6113 33.9929 52.0697 33.0399 51.4626 32.1292C49.9687 29.7914 47.9361 28.2768 45.066 28.5724C43.9026 28.6907 42.7799 29.3138 41.6708 29.7732C38.3344 31.1695 36.3742 34.0668 35.1474 37.1233C32.721 43.1771 32.7345 49.2445 37.1891 54.7298H37.1981ZM52.196 55.8168C61.0145 40.3799 70.4623 25.284 81.0871 10.9159C79.2056 12.0815 77.4043 13.3732 75.6955 14.782C74.4868 15.7689 73.3596 16.8605 72.2324 17.9658C70.9603 19.1938 69.7244 20.4674 68.4885 21.7318C67.0626 23.1827 65.6275 24.6245 64.2513 26.1209C62.9928 27.4854 61.8339 28.95 60.5845 30.3236C58.6741 32.4158 56.7139 34.4534 54.808 36.5456C54.63 36.8314 54.5402 37.1638 54.55 37.5008C54.3237 40.4345 54.2512 43.3863 53.871 46.3018C53.4454 49.4856 52.7573 52.6421 52.1869 55.8168H52.196ZM37.9858 55.6031C38.9956 56.3458 40.0543 57.019 41.1547 57.618C43.4182 58.7005 45.8944 58.8642 48.3979 58.7687C50.5346 58.6914 50.5617 58.7141 50.9601 56.5764C51.8293 51.9326 52.7166 47.2888 53.5043 42.6267C53.7397 41.2622 53.6672 39.8022 53.7533 38.0511L37.9858 55.6031Z" fill="#303030"/>
<path d="M88.697 54.5391C89.6838 54.0433 90.5078 53.5612 91.4132 53.2064C91.8332 53.1191 92.265 53.1053 92.6898 53.1655C92.649 53.643 92.7531 54.1979 92.5449 54.58C92.1293 55.2194 91.6679 55.8274 91.1642 56.3993C91.001 56.6277 90.8499 56.8646 90.7115 57.1089L90.9559 57.4682L100.68 52.1648L100.838 52.3968C100.701 52.6261 100.537 52.8384 100.349 53.029C97.6987 55.0941 94.7513 56.7427 91.6078 57.9185C91.1008 58.1186 90.3991 57.8275 89.797 57.7638C89.9245 57.1035 90.1297 56.4607 90.4082 55.849C90.8239 55.2865 91.3023 54.7738 91.8342 54.3208C91.6123 54.1752 91.5761 54.1297 91.549 54.1343C87.6694 55.094 87.2619 58.4734 86.3611 61.5571C85.1659 65.6506 83.9618 69.7168 82.5901 73.7375C80.983 78.445 79.2537 83.1116 77.452 87.7463C76.6909 89.5923 75.7825 91.3734 74.7358 93.0724C74.5439 93.3389 74.2951 93.5589 74.0076 93.7162C73.7202 93.8736 73.4013 93.9645 73.0744 93.982C72.6851 93.982 72.169 93.2134 71.9608 92.6858C70.0775 87.8282 69.6248 82.775 69.9825 77.6081C70.245 73.8376 71.6575 70.4354 73.6312 67.3699C75.2984 64.6546 77.4997 62.3098 80.1003 60.4792C82.3637 58.9418 84.6725 57.4045 86.7866 55.658C87.5516 55.0257 87.9546 53.8386 88.2805 52.8198C88.9958 50.5866 89.5073 48.2715 90.1999 46.0474C91.3226 42.4087 92.5313 38.7701 93.6947 35.1314C93.8306 34.6766 93.9166 34.2445 94.0297 33.7988L93.7038 33.6396C93.0383 34.7903 92.391 35.9501 91.6984 37.0872C90.2905 39.4023 88.8735 41.7128 87.4204 44.0052C85.9219 46.3748 84.419 48.74 82.8436 51.055C82.0599 52.2156 81.1752 53.3039 80.1999 54.3071C80.0847 54.438 79.9394 54.5385 79.7766 54.5999C79.6138 54.6613 79.4385 54.6817 79.2661 54.6592C79.0936 54.6368 78.9293 54.5722 78.7875 54.4712C78.6456 54.3702 78.5306 54.2357 78.4524 54.0797C78.0993 53.5112 77.8413 52.8789 77.4474 52.0921C76.5783 53.5839 75.7906 55.0348 74.8988 56.4175C74.298 57.3339 73.6162 58.194 72.8616 58.9873C72.5719 59.2966 71.8068 59.615 71.6122 59.4649C71.4189 59.2922 71.2618 59.0826 71.1499 58.8484C71.038 58.6141 70.9735 58.3599 70.9603 58.1004C70.9603 57.2544 71.1776 56.3993 71.1776 55.4578C70.8698 55.9854 70.5982 56.5358 70.2722 57.0315C69.5162 58.1095 68.7557 59.1829 67.9182 60.2154C67.6918 60.4883 67.0626 60.7339 66.8272 60.6065C66.6452 60.484 66.4954 60.3191 66.3905 60.1259C66.2857 59.9326 66.2289 59.7168 66.2251 59.4967C66.4515 57.4236 66.8145 55.3678 67.3116 53.3429C68.2622 49.9407 69.4302 46.5977 70.5393 43.2365C70.6163 43.0045 70.9513 42.859 71.164 42.6725C71.2772 42.95 71.5443 43.2729 71.4764 43.4912C70.8019 45.5925 70.0096 47.6529 69.3804 49.7633C68.5474 52.5742 67.8186 55.4123 67.0807 58.2459C67.0018 58.7237 66.973 59.2085 66.9947 59.6923L67.384 59.8379C68.5203 58.0185 69.6475 56.231 70.7838 54.4163C73.251 50.4183 74.2152 45.8472 75.6638 41.4627C75.8494 40.9078 75.7725 39.848 76.791 40.2028C77.0083 40.2756 77.0129 41.4627 76.8499 42.0585C76.3695 43.9598 75.7646 45.8272 75.0391 47.6484C73.8666 50.3774 72.6624 53.1063 72.2279 56.0673C72.1147 56.836 72.0468 57.6183 71.9608 58.3915L72.3274 58.5416C73.1378 57.4454 74.0749 56.4221 74.7267 55.235C76.1799 52.5924 77.5968 49.918 78.8282 47.1617C79.797 44.9967 80.4669 42.6998 81.2773 40.462C81.3769 40.1846 81.4493 39.8298 81.6575 39.6706C81.9351 39.4628 82.276 39.3583 82.6218 39.375C82.744 39.375 82.9658 39.9526 82.8934 40.1846C82.6806 40.8623 82.3275 41.4899 82.0559 42.154C80.9966 44.7465 79.9101 47.33 78.9097 49.9453C78.6456 50.6733 78.5212 51.4449 78.543 52.2194C78.5626 52.466 78.6311 52.7062 78.7447 52.9257C78.8582 53.1452 79.0143 53.3396 79.2039 53.4975C79.3533 53.6158 80.1093 53.2655 80.3311 52.9472C81.49 51.4417 82.5946 49.8907 83.672 48.317C85.2248 46.0428 86.764 43.7687 88.2398 41.4172C89.5073 39.4023 90.7251 37.3555 91.8613 35.2679C93.31 32.6253 94.6907 29.9463 96.0488 27.2537C96.375 26.519 96.6399 25.7583 96.841 24.9796C98.1991 20.5905 99.53 16.1786 100.974 11.8168C101.88 9.11051 102.912 6.45884 103.975 3.81627C104.402 2.75268 104.96 1.7472 105.637 0.823477C105.821 0.587522 106.054 0.394831 106.32 0.258908C106.586 0.122985 106.878 0.0471206 107.176 0.0366211C107.511 0.0684593 108.081 0.946284 108.009 1.40112C107.77 3.11414 107.427 4.81083 106.981 6.48158C106.654 7.80406 106.215 9.09596 105.669 10.3431C104.265 13.436 102.762 16.4788 101.305 19.5443C100.829 20.545 100.399 21.5683 99.8967 22.5599C98.5884 25.1661 97.1036 27.6949 95.9944 30.383C95.0891 32.5753 94.6364 34.9586 93.9618 37.2464C93.0202 40.4272 92.0635 43.6004 91.0917 46.766C90.4172 48.9628 89.6974 51.1415 89.0048 53.3292C88.86 53.6612 88.8011 54.0706 88.697 54.5391ZM86.8545 57.0179L86.6327 56.8405C85.2338 57.8366 83.8757 58.8918 82.4316 59.8151C79.8512 61.516 77.5587 63.6212 75.6412 66.0508C73.2765 69.0204 71.6836 72.534 71.0056 76.2755C70.2379 80.316 70.4585 84.4835 71.6484 88.4195C72.1011 90.0341 72.4587 91.6806 72.8616 93.3089L73.2374 93.3771C73.8847 92.4675 74.686 91.626 75.1387 90.6481C76.2659 88.1784 77.2528 85.645 78.2533 83.1252C78.6788 82.0564 78.9957 80.9466 79.3759 79.8641C80.5122 76.6211 81.6802 73.3873 82.7893 70.1398C83.6434 67.6534 84.4612 65.1533 85.2429 62.6396C85.8314 60.7839 86.3248 58.8873 86.8545 57.0179ZM107.049 0.805287L106.529 0.755256C102.808 7.67324 100.924 15.2871 98.4979 22.7191C98.933 22.3361 99.2911 21.8729 99.5527 21.3546C100.177 20.0492 100.721 18.7029 101.341 17.393C102.522 14.9096 103.88 12.499 104.894 9.94739C105.774 7.55102 106.522 5.10793 107.135 2.62916C107.28 2.06062 107.076 1.41021 107.049 0.805287Z" fill="#303030"/>
<path d="M118 40.9302L105.601 48.6032C105.732 48.1483 105.732 47.6935 105.94 47.5616C109.435 45.2875 112.663 42.5266 116.665 41.0939C117.103 40.9963 117.551 40.9415 118 40.9302Z" fill="#303030"/>
</g>
<defs>
<clipPath id="clip0_1_22">
<rect width="118" height="94" fill="white"/>
</clipPath>
</defs>
</svg>
