<svg width="15" height="23" viewBox="0 0 15 23" fill="none" xmlns="http://www.w3.org/2000/svg">
<g clip-path="url(#clip0_1_155)">
<path d="M3.34814 7.97353C3.34814 6.71426 3.34814 5.46064 3.34814 4.20137C3.35795 3.57369 3.50314 2.95674 3.77256 2.39781C4.04198 1.83889 4.42849 1.35285 4.90243 0.976971C5.43163 0.525612 6.0571 0.218837 6.72404 0.0835289C7.39097 -0.0517795 8.07901 -0.0114944 8.72785 0.200861C9.3767 0.413215 9.96655 0.791152 10.4457 1.30156C10.9249 1.81196 11.2787 2.43925 11.4762 3.12845C11.6008 3.58724 11.6617 4.06279 11.6572 4.54019C11.6572 6.79897 11.6572 9.10292 11.6572 11.3843C11.6919 12.2553 11.4777 13.1172 11.0427 13.8568C10.6076 14.5965 9.97208 15.1794 9.21932 15.5291C8.43319 15.9135 7.55317 16.0266 6.70328 15.8523C5.85338 15.6781 5.07643 15.2253 4.48192 14.5579C4.0981 14.1336 3.7978 13.6324 3.59857 13.0836C3.39933 12.5349 3.30515 11.9495 3.32152 11.3617C3.32152 10.2323 3.32152 9.10292 3.32152 7.97353H3.34814Z" fill="#25B2EA"/>
<path d="M8.35169 21.2381H11.588C11.7041 21.2285 11.8208 21.245 11.9306 21.2864C12.0403 21.3278 12.1406 21.3933 12.2249 21.4785C12.3093 21.5637 12.3757 21.6667 12.4201 21.781C12.4644 21.8952 12.4856 22.0181 12.4823 22.1416C12.4757 22.3566 12.3962 22.5619 12.2583 22.7196C12.1204 22.8773 11.9334 22.9769 11.7317 22.9999H3.35346C3.24221 23.0045 3.13122 22.9852 3.02712 22.9434C2.92301 22.9015 2.8279 22.8378 2.74745 22.7562C2.66701 22.6745 2.60286 22.5765 2.55883 22.468C2.5148 22.3595 2.49178 22.2428 2.49115 22.1247C2.49013 22.0031 2.51284 21.8826 2.55786 21.7708C2.60288 21.659 2.66923 21.5583 2.75273 21.475C2.83623 21.3917 2.93507 21.3277 3.04304 21.2869C3.151 21.2461 3.26576 21.2295 3.38008 21.2381H6.63239V19.4254C6.24381 19.3407 5.8446 19.2786 5.46135 19.1657C3.98186 18.7386 2.6669 17.8277 1.70335 16.5624C0.874704 15.5427 0.322756 14.3033 0.106477 12.9766C0.0353317 12.4964 -0.00379265 12.0114 -0.0106199 11.5253C-0.0106199 10.9606 -0.0106199 10.3621 -0.0106199 9.77479C-0.0149188 9.65555 0.00351839 9.5366 0.0435872 9.4251C0.0836561 9.31359 0.144524 9.21182 0.222559 9.12587C0.300593 9.03992 0.394181 8.97157 0.497712 8.92492C0.601243 8.87826 0.712589 8.85425 0.825075 8.85434C0.936445 8.85652 1.0463 8.88215 1.14825 8.92974C1.25021 8.97733 1.34223 9.04594 1.41899 9.13158C1.49575 9.21721 1.55571 9.31816 1.59539 9.42858C1.63506 9.539 1.65367 9.65668 1.65013 9.77479C1.65013 10.4976 1.65013 11.2261 1.68207 11.9489C1.74562 13.4497 2.35411 14.8662 3.38008 15.9017C3.99465 16.5701 4.74759 17.0773 5.57917 17.3831C6.41074 17.689 7.29806 17.785 8.17071 17.6636C8.95149 17.5727 9.70588 17.3104 10.3859 16.8933C11.0658 16.4762 11.6565 15.9135 12.1203 15.241C12.927 14.1488 13.3521 12.7939 13.3233 11.4068C13.3233 10.8421 13.3233 10.3112 13.3233 9.7635C13.3182 9.64405 13.3362 9.52476 13.3759 9.4129C13.4157 9.30103 13.4766 9.19894 13.5548 9.11283C13.633 9.02671 13.7268 8.95838 13.8307 8.912C13.9346 8.86562 14.0463 8.84215 14.159 8.84304C14.2704 8.84444 14.3803 8.86959 14.4823 8.91698C14.5843 8.96438 14.6763 9.03305 14.7528 9.11893C14.8293 9.2048 14.8887 9.30612 14.9275 9.41685C14.9663 9.52759 14.9837 9.64547 14.9787 9.7635C14.9787 10.6444 14.9787 11.531 14.9255 12.4063C14.7826 14.0837 14.1048 15.6593 13.0039 16.873C12.1451 17.8942 11.0414 18.6495 9.81017 19.0584C9.41095 19.1882 9.00109 19.256 8.59654 19.352L8.32508 19.4085L8.35169 21.2381Z" fill="#25B2EA"/>
</g>
<defs>
<clipPath id="clip0_1_155">
<rect width="15" height="23" fill="white"/>
</clipPath>
</defs>
</svg>
