<svg width="25" height="22" viewBox="0 0 25 22" fill="none" xmlns="http://www.w3.org/2000/svg">
<g clip-path="url(#clip0_1_158)">
<path d="M12.4597 11.0099V19.1277C12.4874 19.4228 12.409 19.718 12.2384 19.9613C12.0677 20.2046 11.8158 20.3803 11.5271 20.4574C11.3252 20.5198 11.1109 20.5312 10.9034 20.4906C10.696 20.4499 10.5021 20.3586 10.3395 20.2247L7.65562 18.2302C7.05175 17.7847 6.4546 17.326 5.84403 16.9005C5.71405 16.8098 5.56007 16.7589 5.40119 16.7542C4.05927 16.7542 2.78445 16.721 1.47608 16.7542C1.28033 16.7659 1.0843 16.7363 0.901025 16.6671C0.717745 16.598 0.551407 16.4911 0.413059 16.3533C0.274711 16.2156 0.167518 16.0503 0.0986071 15.8684C0.0296964 15.6864 0.000642315 15.4921 0.0133753 15.2982C0.0133753 12.4127 0.0133753 9.52724 0.0133753 6.65508C-0.00635392 6.45961 0.0178722 6.26225 0.0843045 6.07716C0.150737 5.89208 0.257729 5.72387 0.397589 5.58465C0.537448 5.44543 0.706705 5.33864 0.893182 5.27197C1.07966 5.20529 1.27873 5.18039 1.47608 5.19904C2.818 5.19904 4.11295 5.19904 5.42804 5.19904C5.56936 5.19468 5.70656 5.15089 5.8239 5.07272C7.35369 3.94912 8.87006 2.81223 10.3931 1.69527C10.563 1.57113 10.761 1.49023 10.9698 1.45971C11.1786 1.42919 11.3918 1.44998 11.5906 1.52024C11.7894 1.59049 11.9678 1.70808 12.1099 1.86264C12.2521 2.01721 12.3538 2.20403 12.406 2.40667C12.4397 2.58189 12.4532 2.76032 12.4463 2.93855L12.4597 11.0099Z" fill="#25B2EA"/>
<path d="M24.9933 10.9568C25.0117 14.909 23.4454 18.7066 20.6387 21.5147C20.5044 21.6612 20.3417 21.7795 20.1603 21.8625C19.9789 21.9454 19.7825 21.9914 19.5828 21.9976C19.3831 22.0038 19.1842 21.9701 18.9979 21.8986C18.8116 21.8271 18.6417 21.7191 18.4984 21.5812C18.3541 21.4473 18.2379 21.2865 18.1564 21.108C18.075 20.9296 18.0298 20.7369 18.0236 20.5412C18.0173 20.3454 18.0501 20.1503 18.1201 19.9671C18.1901 19.7839 18.2958 19.6162 18.4313 19.4736C19.2012 18.6845 19.8766 17.81 20.4442 16.8674C21.4958 15.0478 22.0313 12.9802 21.9941 10.8837C21.9993 9.35557 21.7004 7.84142 21.1144 6.42791C20.5283 5.01441 19.6667 3.7293 18.5789 2.64615C18.2902 2.39239 18.1051 2.04292 18.0581 1.6634C18.0112 1.28388 18.1057 0.900438 18.3239 0.585104C18.4539 0.407484 18.6222 0.260814 18.8166 0.155763C19.011 0.0507126 19.2266 -0.0100676 19.4476 -0.0221673C19.6687 -0.0342671 19.8897 0.00261571 20.0946 0.0858145C20.2995 0.169013 20.4831 0.296435 20.632 0.45879C22.1566 1.96478 23.3352 3.779 24.0875 5.77761C24.589 7.10465 24.8875 8.49851 24.9731 9.913C24.9597 10.292 24.9798 10.6643 24.9933 10.9568Z" fill="#25B2EA"/>
<path d="M19.7464 11.3025C19.6978 12.7864 19.3198 14.2414 18.6393 15.5642C18.1547 16.5051 17.5203 17.3627 16.7607 18.1039C16.563 18.326 16.3005 18.4817 16.0097 18.5495C15.7188 18.6174 15.4139 18.5942 15.1369 18.4829C14.8568 18.3884 14.6136 18.2093 14.4416 17.9708C14.2695 17.7323 14.1771 17.4464 14.1775 17.1532C14.1576 16.7803 14.2824 16.414 14.5264 16.1293C14.9732 15.601 15.3899 15.0483 15.7743 14.4738C16.4479 13.346 16.77 12.0461 16.7003 10.7374C16.6589 9.20692 16.1147 7.73165 15.1504 6.53548C14.9692 6.31608 14.7746 6.10997 14.5867 5.87063C14.3119 5.5801 14.1634 5.19407 14.1735 4.79596C14.1835 4.39785 14.3512 4.01964 14.6404 3.74309C14.7895 3.60504 14.9649 3.49795 15.1564 3.42809C15.3478 3.35823 15.5515 3.32703 15.7553 3.33632C15.9591 3.34561 16.159 3.3952 16.3432 3.48218C16.5274 3.56917 16.6921 3.69178 16.8278 3.84281C18.1824 5.21054 19.1137 6.93389 19.5116 8.80927C19.6922 9.62773 19.7711 10.465 19.7464 11.3025Z" fill="#25B2EA"/>
</g>
<defs>
<clipPath id="clip0_1_158">
<rect width="25" height="22" fill="white"/>
</clipPath>
</defs>
</svg>
