<svg width="25" height="14" viewBox="0 0 25 14" fill="none" xmlns="http://www.w3.org/2000/svg">
<g clip-path="url(#clip0_1_152)">
<path d="M8.45587 13.9885C6.49709 13.9885 4.53832 13.9885 2.57954 13.9885C1.8986 13.9594 1.25483 13.6842 0.779047 13.2188C0.303264 12.7533 0.0311689 12.1326 0.0180664 11.4828C0.0180664 8.49425 0.0180664 5.50767 0.0180664 2.52299C0.0364581 1.87765 0.307857 1.26231 0.778707 0.798434C1.24956 0.334553 1.88565 0.055819 2.56146 0.0172362C2.8146 0.0172362 3.06773 0.0172362 3.32086 0.0172362H14.0067C14.5135 -0.00895953 15.0179 0.100379 15.4631 0.332918C15.9082 0.565456 16.2764 0.911952 16.526 1.33333C16.7775 1.75254 16.9027 2.22988 16.8876 2.71264C16.8876 5.5862 16.8876 8.45977 16.8876 11.3333C16.908 11.9594 16.6915 12.5716 16.2776 13.058C15.8638 13.5444 15.2802 13.8727 14.6335 13.9828C14.4083 14.0164 14.1803 14.0298 13.9525 14.023H8.45587V13.9885Z" fill="#25B2EA"/>
<path d="M24.9939 7.02301C24.9939 8.31611 24.9939 9.61497 24.9939 10.9081C25.0141 11.1943 24.951 11.4803 24.8115 11.7345C24.6721 11.9887 24.4617 12.2012 24.2036 12.3486C23.9455 12.4961 23.6497 12.5727 23.3489 12.57C23.0481 12.5673 22.7539 12.4854 22.4987 12.3334C21.1185 11.6035 19.7625 10.8448 18.4004 10.092C18.3577 10.0626 18.3222 10.0248 18.2962 9.98115C18.2702 9.93752 18.2544 9.88909 18.2497 9.83912C18.2497 7.93682 18.2497 6.04026 18.2497 4.13796C18.2433 4.08231 18.2556 4.02616 18.2849 3.97762C18.3141 3.92908 18.3588 3.89064 18.4124 3.86784C19.7745 3.12072 21.1246 2.36783 22.4867 1.6322C22.7402 1.48181 23.0319 1.40005 23.3305 1.39569C23.6291 1.39133 23.9233 1.46455 24.1816 1.60747C24.4398 1.7504 24.6525 1.95765 24.7966 2.20702C24.9408 2.45639 25.0111 2.73846 24.9999 3.02302C24.9999 4.35635 24.9939 5.68968 24.9939 7.02301Z" fill="#25B2EA"/>
</g>
<defs>
<clipPath id="clip0_1_152">
<rect width="25" height="14" fill="white"/>
</clipPath>
</defs>
</svg>
