<svg width="23" height="23" viewBox="0 0 23 23" fill="none" xmlns="http://www.w3.org/2000/svg">
<g clip-path="url(#clip0_1_162)">
<path d="M11.5066 0C14.5561 0.00350781 17.4794 1.21735 19.6345 3.37488C21.7895 5.53241 23 8.45716 23 11.5066C22.9918 14.5549 21.7739 17.4753 19.6139 19.6262C17.4539 21.7771 14.5284 22.9826 11.4801 22.9779C8.43109 22.9698 5.51005 21.7513 3.35901 19.5903C1.20797 17.4293 0.00295153 14.5027 0.00881033 11.4537C0.0228021 8.41264 1.24007 5.50079 3.39456 3.35457C5.54905 1.20835 8.46554 0.00229992 11.5066 0ZM5.44445 8.352C5.44603 9.01105 5.59687 9.66118 5.88566 10.2536C6.52221 11.7106 7.43291 13.0318 8.56818 14.145C9.98958 15.6465 11.7733 16.7572 13.7479 17.3702C14.4927 17.5975 15.2962 17.5312 15.9937 17.1849C16.4925 16.9052 16.9401 16.5427 17.3173 16.1128C17.3931 16.0668 17.4557 16.002 17.4992 15.9247C17.5427 15.8474 17.5655 15.7603 17.5655 15.6716C17.5655 15.5829 17.5427 15.4957 17.4992 15.4185C17.4557 15.3412 17.3931 15.2764 17.3173 15.2304C16.6584 14.5656 15.9981 13.9023 15.3363 13.2405C15.2887 13.1668 15.2234 13.1061 15.1463 13.0641C15.0692 13.0221 14.9828 13.0001 14.8951 13.0001C14.8073 13.0001 14.7209 13.0221 14.6438 13.0641C14.5668 13.1061 14.5014 13.1668 14.4539 13.2405C14.0921 13.6067 13.7303 13.9774 13.3641 14.3436C13.1856 14.5451 12.9357 14.6693 12.6672 14.6898C12.3988 14.7104 12.1329 14.6258 11.9258 14.4539C10.6346 13.5391 9.49685 12.4252 8.55495 11.1537C8.46002 11.0488 8.38735 10.9258 8.34133 10.7921C8.29531 10.6583 8.2769 10.5166 8.28721 10.3756C8.29752 10.2345 8.33634 10.097 8.40132 9.9714C8.4663 9.84578 8.55608 9.73465 8.66525 9.64473L9.80797 8.50201C9.86913 8.45643 9.91879 8.39719 9.95301 8.32902C9.98722 8.26084 10.005 8.18561 10.005 8.10933C10.005 8.03305 9.98722 7.95783 9.95301 7.88966C9.91879 7.82148 9.86913 7.76225 9.80797 7.71667C9.12851 7.0328 8.44906 6.34892 7.76078 5.66947C7.71492 5.60657 7.65485 5.5554 7.58546 5.52012C7.51607 5.48484 7.43933 5.46644 7.36149 5.46644C7.28365 5.46644 7.2069 5.48484 7.13751 5.52012C7.06813 5.5554 7.00806 5.60657 6.9622 5.66947C6.75483 5.86801 6.55629 6.07098 6.35775 6.27393C5.80057 6.82558 5.47407 7.56849 5.44445 8.352Z" fill="#F90001"/>
<path d="M5.44458 8.352C5.48549 7.57531 5.81795 6.84265 6.37552 6.3004C6.57406 6.09745 6.7726 5.89448 6.97997 5.69594C7.02583 5.63304 7.0859 5.58187 7.15529 5.54659C7.22468 5.51131 7.30142 5.49292 7.37926 5.49292C7.4571 5.49292 7.53385 5.51131 7.60324 5.54659C7.67262 5.58187 7.73269 5.63304 7.77855 5.69594C8.46683 6.37539 9.14628 7.05927 9.82574 7.74313C9.8869 7.78872 9.93657 7.84795 9.97079 7.91613C10.005 7.9843 10.0228 8.05952 10.0228 8.1358C10.0228 8.21208 10.005 8.28731 9.97079 8.35549C9.93657 8.42366 9.8869 8.48289 9.82574 8.52848L8.68302 9.6712C8.57386 9.76112 8.48407 9.87225 8.41909 9.99787C8.35411 10.1235 8.31529 10.261 8.30498 10.402C8.29467 10.5431 8.31308 10.6848 8.3591 10.8185C8.40512 10.9523 8.47779 11.0753 8.57272 11.1801C9.51462 12.4516 10.6524 13.5655 11.9435 14.4803C12.1507 14.6523 12.4166 14.7369 12.685 14.7163C12.9534 14.6957 13.2033 14.5715 13.3819 14.37C13.7481 14.0038 14.1098 13.6332 14.4716 13.267C14.5192 13.1932 14.5845 13.1326 14.6616 13.0906C14.7387 13.0486 14.8251 13.0266 14.9128 13.0266C15.0006 13.0266 15.087 13.0486 15.1641 13.0906C15.2411 13.1326 15.3065 13.1932 15.354 13.267C16.0158 13.9288 16.6762 14.5921 17.335 15.2568C17.4108 15.3029 17.4735 15.3677 17.517 15.4449C17.5604 15.5222 17.5833 15.6094 17.5833 15.6981C17.5833 15.7867 17.5604 15.8739 17.517 15.9512C17.4735 16.0285 17.4108 16.0932 17.335 16.1393C16.9579 16.5692 16.5103 16.9317 16.0114 17.2114C15.314 17.5577 14.5105 17.624 13.7657 17.3967C11.7876 16.7793 10.0021 15.6624 8.58155 14.1538C7.44627 13.0406 6.53557 11.7195 5.89902 10.2624C5.60435 9.6684 5.44894 9.01506 5.44458 8.352Z" fill="#303030"/>
</g>
<defs>
<clipPath id="clip0_1_162">
<rect width="23" height="23" fill="white"/>
</clipPath>
</defs>
</svg>
